# xmcd
#
# Track frame offsets: 
#        150
#        22454
#        38998
#        61860
#        80162
#        98727
#        116123
#        130949
#        148261
#        167765
#        185580
#
# Disc length: 2785 seconds
#
# Revision: 1
# Processed by: cddbd v1.5.2PL0 Copyright (c) Steve Scherf et al.
# Submitted via: ExactAudioCopyFreeDBPlugin 1.0
#
DISCID=a50adf0b
DTITLE=Spencer Bohren - Blackwater Music
DYEAR=2012
DGENRE=Blues
TTITLE0=Old Louisa's Movin' On
TTITLE1=Your Home Is In My Heart
TTITLE2=It's Gonna Take A Miracle
TTITLE3=Bad Luck Bone
TTITLE4=Has Anyone Seen Mattie?
TTITLE5=Borrowed Time
TTITLE6=Take Me To Rammpart Street
TTITLE7=Blackwater Music
TTITLE8=Your Love
TTITLE9=The Old Homestead
TTITLE10=Listen To The Wind
EXTD=YEAR: 2012
EXTT0=
EXTT1=
EXTT2=
EXTT3=
EXTT4=
EXTT5=
EXTT6=
EXTT7=
EXTT8=
EXTT9=
EXTT10=
PLAYORDER=
